<svg xmlns="http://www.w3.org/2000/svg" xmlns:xlink="http://www.w3.org/1999/xlink" viewBox="0 0 14.4 16.2"><defs><style>.cls-1{fill:none;}.cls-2{clip-path:url(#clip-path);}.cls-3{fill:#fff;}</style><clipPath id="clip-path" transform="translate(0 0)"><rect class="cls-1" width="14.4" height="16.2"/></clipPath></defs><g id="Layer_2" data-name="Layer 2"><g id="Layer_1-2" data-name="Layer 1"><g class="cls-2"><path class="cls-3" d="M14,8.37h-.53V8.9h-.53V8.37H12.4V7.83h.54V7.3h.53v.53H14Zm-2,0h-.53V8.9h-.53V8.37H10.4V7.83h.54V7.3h.53v.53H12ZM7.2,12.9a4.8,4.8,0,1,1,4.16-7.2L9.28,6.9a2.4,2.4,0,1,0,0,2.4l2.08,1.2A4.82,4.82,0,0,1,7.2,12.9m7-8.85a1.25,1.25,0,0,0-.44-.47L7.83.15a1.38,1.38,0,0,0-1.25,0l-6,3.43A1.4,1.4,0,0,0,0,4.66v6.88a1.33,1.33,0,0,0,.18.61,1.33,1.33,0,0,0,.44.47l6,3.43a1.38,1.38,0,0,0,1.25,0l5.95-3.43a1.25,1.25,0,0,0,.44-.47,1.33,1.33,0,0,0,.18-.61V4.66a1.33,1.33,0,0,0-.18-.61" transform="translate(0 0)"/></g></g></g></svg>