<svg xmlns="http://www.w3.org/2000/svg" xmlns:xlink="http://www.w3.org/1999/xlink" viewBox="0 0 419.53 67.89"><defs><style>.cls-1{fill:none;}.cls-2{clip-path:url(#clip-path);}.cls-3{fill:#7acc9e;}</style><clipPath id="clip-path" transform="translate(0 0)"><rect class="cls-1" width="419.53" height="67.89"/></clipPath></defs><g id="Layer_2" data-name="Layer 2"><g id="Layer_1-2" data-name="Layer 1"><g class="cls-2"><path class="cls-3" d="M87.38,65.74a4.27,4.27,0,0,1-2.58-1,3.18,3.18,0,0,1-.61-2.44,111.16,111.16,0,0,1,1.55-11.49c.81-4.56,6.7-30.74,7.85-35a2.48,2.48,0,0,1,1.32-1.65,6.12,6.12,0,0,1,2.59-.47c1.91,0,2.86.54,2.86,1.6a4.82,4.82,0,0,1-.28,1.51c-.81,2.5-6.52,27.65-7.34,31.86S91.35,56.93,91,60.76c.94.09,2,.14,3.2.14q8.22,0,12.29-5t4.06-13.3c0-3.73-1.06-6.62-3.19-8.65s-5.14-3.06-9-3.06a24.26,24.26,0,0,0-7.45,1.18c-2.45.78-4.67,4.09-6.65,5.38a2.24,2.24,0,0,1-1.31.42,1.48,1.48,0,0,1-1.27-.68,2.91,2.91,0,0,1-.47-1.67,4,4,0,0,1,.38-1.86,3.85,3.85,0,0,1,1.26-1.34c2.17-1.47,4.7-4.87,7.62-5.63a32.9,32.9,0,0,1,8.41-1.16,22.86,22.86,0,0,1,9.92,2,14.52,14.52,0,0,1,6.44,5.85,18.19,18.19,0,0,1,2.25,9.31,25.91,25.91,0,0,1-2.82,12.38,19.72,19.72,0,0,1-8.22,8.21,26.8,26.8,0,0,1-12.88,2.91,46.43,46.43,0,0,1-6.16-.47" transform="translate(0 0)"/><path class="cls-3" d="M126.79,50.7a9.43,9.43,0,0,0-1.2,4.89v.09a10.75,10.75,0,0,0,4.37-2,3.88,3.88,0,0,0,1.6-3.06,2,2,0,0,0-.49-1.43,1.73,1.73,0,0,0-1.34-.54,3.44,3.44,0,0,0-2.94,2m15.75,5.36a2.94,2.94,0,0,1,.35,1.55,4.34,4.34,0,0,1-.89,2.91,17.23,17.23,0,0,1-4.91,3.9,13.66,13.66,0,0,1-6.8,1.79q-4.93,0-7.66-2.68a9.84,9.84,0,0,1-2.72-7.33,13.57,13.57,0,0,1,1.36-6,11.17,11.17,0,0,1,3.78-4.44,9.52,9.52,0,0,1,5.48-1.65,6,6,0,0,1,4.37,1.62,5.88,5.88,0,0,1,1.64,4.4,7.6,7.6,0,0,1-2.32,5.57c-1.55,1.55-4.18,2.78-7.87,3.69q1.17,2.16,4.46,2.16A10.25,10.25,0,0,0,135.63,60a16,16,0,0,0,4.68-3.88,1.62,1.62,0,0,1,1.26-.66,1.1,1.1,0,0,1,1,.57" transform="translate(0 0)"/><path class="cls-3" d="M163.05,51.64a1.31,1.31,0,0,1,1.08.47,2,2,0,0,1,.38,1.27,4,4,0,0,1-.56,2.28,3.19,3.19,0,0,1-1.7,1.2,14.72,14.72,0,0,1-4.6.7,13.37,13.37,0,0,1-3.9-.56c-.91,1.47-1.92,3-3,4.56a16.48,16.48,0,0,1-3.24,3.66,5.17,5.17,0,0,1-3.11,1,3.57,3.57,0,0,1-3-1.5A9.57,9.57,0,0,1,140,60q-.57-6.59-.57-11.52V46.8a2.63,2.63,0,0,1,.85-2.16,3.88,3.88,0,0,1,2.39-.61,2.59,2.59,0,0,1,1.81.54,2.33,2.33,0,0,1,.59,1.81q0,5.4.66,14c1.88-2.79,3.29-5,4.23-6.68a7,7,0,0,1-.71-3.24,7.24,7.24,0,0,1,.71-3.1A6.42,6.42,0,0,1,151.87,45a4.4,4.4,0,0,1,2.77-.94,2.81,2.81,0,0,1,2.21,1,4.13,4.13,0,0,1,.84,2.8,12.92,12.92,0,0,1-1.12,4.84,34.16,34.16,0,0,0,4.74-.71l1.27-.23a1.7,1.7,0,0,1,.47,0" transform="translate(0 0)"/><path class="cls-3" d="M171.58,60a6.77,6.77,0,0,0,1.48-3.53,6.55,6.55,0,0,1-2.23-2.58A7.7,7.7,0,0,1,170.2,49H170a3.69,3.69,0,0,0-3.13,1.81,8.9,8.9,0,0,0-1.24,5.1,6.55,6.55,0,0,0,1,3.94A2.92,2.92,0,0,0,169,61.23,3.4,3.4,0,0,0,171.58,60m13.75-7.85a3.21,3.21,0,0,1,.33,1.55c0,1.5-.45,2.39-1.36,2.68a21.55,21.55,0,0,1-6.21,1.12,11.74,11.74,0,0,1-3.52,6.33,8.7,8.7,0,0,1-6,2.37,8.33,8.33,0,0,1-4.82-1.36,8.71,8.71,0,0,1-3-3.62,11.63,11.63,0,0,1-1-4.89A14.37,14.37,0,0,1,161.08,50a10.73,10.73,0,0,1,3.76-4.37A9.47,9.47,0,0,1,170.15,44a7.34,7.34,0,0,1,5.76,2.46,10.64,10.64,0,0,1,2.56,6.09,28.43,28.43,0,0,0,5.26-.94,2.87,2.87,0,0,1,.66-.09,1,1,0,0,1,.94.61" transform="translate(0 0)"/><path class="cls-3" d="M182.44,64.33a17.9,17.9,0,0,1-.73-6,38.3,38.3,0,0,1,1.74-11.61,3.5,3.5,0,0,1,1.39-2,4.81,4.81,0,0,1,2.7-.64,2.59,2.59,0,0,1,1.31.24,1,1,0,0,1,.38.89,18,18,0,0,1-.71,3.38c-.31,1.26-.56,2.35-.75,3.29a34.46,34.46,0,0,0-.47,3.48,27.14,27.14,0,0,1,3.48-6.58,13.84,13.84,0,0,1,3.78-3.62A6.91,6.91,0,0,1,198,44.07q3.06,0,3.06,3.06a37.8,37.8,0,0,1-1,6.62,33.15,33.15,0,0,0-.89,5.41c0,1.25.45,1.88,1.36,1.88a3.68,3.68,0,0,0,2.24-1.15,38.64,38.64,0,0,0,3.45-3.74,1.66,1.66,0,0,1,1.27-.66,1.07,1.07,0,0,1,1,.57,2.85,2.85,0,0,1,.35,1.55,4.29,4.29,0,0,1-.89,2.91,20.54,20.54,0,0,1-4.35,4.09,9.07,9.07,0,0,1-5.28,1.6,4.54,4.54,0,0,1-3.62-1.39,5.86,5.86,0,0,1-1.22-4,29,29,0,0,1,.65-4.7,23.91,23.91,0,0,0,.61-4.08c0-.51-.17-.76-.51-.76s-1,.53-1.72,1.58A24.91,24.91,0,0,0,190.15,57a32.07,32.07,0,0,0-1.86,5.45,7.27,7.27,0,0,1-1.2,3,2.69,2.69,0,0,1-2.14.78,2.56,2.56,0,0,1-2.51-1.88" transform="translate(0 0)"/><path class="cls-3" d="M223.45,65.74a4.27,4.27,0,0,1-2.59-1,3.23,3.23,0,0,1-.61-2.44,114,114,0,0,1,1.55-11.49q1.22-6.84,3-13.19A2.43,2.43,0,0,1,226.08,36a6.1,6.1,0,0,1,2.58-.47c1.91,0,2.87.53,2.87,1.6a4.72,4.72,0,0,1-.28,1.5A88.14,88.14,0,0,0,228.8,48.7c-.81,4.22-1.39,8.23-1.74,12.06.94.09,2,.14,3.2.14q8.22,0,12.29-5t4.07-13.3c0-3.73-1.07-6.62-3.2-8.65s-5.14-3.06-9-3.06A24.21,24.21,0,0,0,227,32.09a27.29,27.29,0,0,0-6.65,3.1,2.3,2.3,0,0,1-1.32.42,1.45,1.45,0,0,1-1.27-.68,2.88,2.88,0,0,1-.47-1.67,4,4,0,0,1,.38-1.85,3.64,3.64,0,0,1,1.27-1.34,24.14,24.14,0,0,1,7.61-3.36,32.9,32.9,0,0,1,8.41-1.16,22.83,22.83,0,0,1,9.92,2,14.47,14.47,0,0,1,6.44,5.85,18.19,18.19,0,0,1,2.26,9.31,25.91,25.91,0,0,1-2.82,12.38,19.74,19.74,0,0,1-8.23,8.21,26.8,26.8,0,0,1-12.88,2.91,46.17,46.17,0,0,1-6.15-.47" transform="translate(0 0)"/><path class="cls-3" d="M257.54,64.26a8.42,8.42,0,0,1-1.34-4.87,41.43,41.43,0,0,1,.47-6.46,40.51,40.51,0,0,1,1.56-6.23,3.94,3.94,0,0,1,1.31-2,4.71,4.71,0,0,1,2.68-.61,2.29,2.29,0,0,1,1.43.33,1.2,1.2,0,0,1,.4,1,19.72,19.72,0,0,1-.51,2.54c-.32,1.16-.57,2.21-.76,3.15a45.18,45.18,0,0,0-.94,6.58,2.85,2.85,0,0,0,.24,1.38.81.81,0,0,0,.75.4c.47,0,1.06-.47,1.76-1.41a20.32,20.32,0,0,0,2.26-4.28,58.16,58.16,0,0,0,2.33-7,3.68,3.68,0,0,1,1.15-2,3.76,3.76,0,0,1,2.32-.61,3.13,3.13,0,0,1,1.51.26,1,1,0,0,1,.42,1,45.56,45.56,0,0,1-1.17,6.44,52,52,0,0,0-1.32,7.43,2.25,2.25,0,0,0,.38,1.39,1.17,1.17,0,0,0,1,.49,3.68,3.68,0,0,0,2.24-1.15,37.46,37.46,0,0,0,3.45-3.74,1.66,1.66,0,0,1,1.27-.66,1.07,1.07,0,0,1,1,.57,2.84,2.84,0,0,1,.36,1.55,4.29,4.29,0,0,1-.9,2.91,20.5,20.5,0,0,1-4.34,4.09,9.12,9.12,0,0,1-5.29,1.6,3.61,3.61,0,0,1-3.32-1.74,9.5,9.5,0,0,1-1.05-4.89,11.12,11.12,0,0,1-2.4,4.91A4.66,4.66,0,0,1,261,66.21a4.06,4.06,0,0,1-3.46-1.95" transform="translate(0 0)"/><path class="cls-3" d="M279.73,63.6a9.38,9.38,0,0,1-2.56-6.88,14.21,14.21,0,0,1,1.5-6.68,11.47,11.47,0,0,1,3.9-4.42,9.14,9.14,0,0,1,5-1.55,5.25,5.25,0,0,1,4,1.53,5.53,5.53,0,0,1,1.43,3.92,6.08,6.08,0,0,1-.87,3.34,2.61,2.61,0,0,1-2.28,1.36,2.27,2.27,0,0,1-1.43-.42,1.4,1.4,0,0,1-.54-1.17,3.79,3.79,0,0,1,.09-.76c.07-.28.11-.48.14-.61A4.1,4.1,0,0,0,288.4,50a1.3,1.3,0,0,0-.31-.94,1.12,1.12,0,0,0-.87-.33,2.81,2.81,0,0,0-2,1,7,7,0,0,0-1.5,2.61,11,11,0,0,0-.56,3.62q0,5.45,4.74,5.45A8.39,8.39,0,0,0,292,60a17.13,17.13,0,0,0,4.4-3.88,1.64,1.64,0,0,1,1.27-.66,1.09,1.09,0,0,1,1,.57,2.94,2.94,0,0,1,.35,1.55,4.57,4.57,0,0,1-.89,2.91,15.36,15.36,0,0,1-5.29,4.21,13.63,13.63,0,0,1-5.95,1.48,9.57,9.57,0,0,1-7.16-2.61" transform="translate(0 0)"/><path class="cls-3" d="M305.46,28.87a41.6,41.6,0,0,0-2,6.53,88.88,88.88,0,0,0-1.57,9,33.47,33.47,0,0,0,4.82-7.47,17.41,17.41,0,0,0,1.9-7.33,6.26,6.26,0,0,0-.33-2.3c-.22-.54-.53-.8-.94-.8s-1.19.8-1.88,2.42m16.8,27.19a2.84,2.84,0,0,1,.36,1.55,4.29,4.29,0,0,1-.9,2.91,24.56,24.56,0,0,1-4.44,4.09,8.79,8.79,0,0,1-5.19,1.6,4.54,4.54,0,0,1-3.62-1.39,5.86,5.86,0,0,1-1.22-4,30.27,30.27,0,0,1,.65-4.7,24.25,24.25,0,0,0,.62-4.08c0-.51-.18-.76-.52-.76s-1,.53-1.74,1.58A23.5,23.5,0,0,0,304,57a33.86,33.86,0,0,0-1.83,5.45q-.9,3.76-4.42,3.76a1.8,1.8,0,0,1-1.85-1,10,10,0,0,1-.45-3.64c0-1,0-1.8.05-2.4l0-3.76A82.06,82.06,0,0,1,297,40.31a45.37,45.37,0,0,1,4.38-13.18q2.88-5.34,6.93-5.34a4.12,4.12,0,0,1,3.5,1.86,8.06,8.06,0,0,1,1.34,4.82,20.65,20.65,0,0,1-2.77,9.84,63.25,63.25,0,0,1-9,11.92c-.09,1.63-.14,3.31-.14,5a26.94,26.94,0,0,1,3.46-6.51,13.29,13.29,0,0,1,3.76-3.6,6.85,6.85,0,0,1,3.4-1.08q3.06,0,3.06,3.06a37.8,37.8,0,0,1-1,6.62,33.15,33.15,0,0,0-.89,5.41c0,1.25.45,1.88,1.36,1.88a3.68,3.68,0,0,0,2.24-1.15A38.64,38.64,0,0,0,320,56.15a1.66,1.66,0,0,1,1.27-.66,1.07,1.07,0,0,1,1,.57" transform="translate(0 0)"/><path class="cls-3" d="M328.25,60.24A7.86,7.86,0,0,0,329.62,57l1.74-8.65a5.69,5.69,0,0,0-3.65,1.48,10.08,10.08,0,0,0-2.65,3.78,12.73,12.73,0,0,0-1,5,3.34,3.34,0,0,0,.59,2.16,2,2,0,0,0,1.62.7,2.54,2.54,0,0,0,2-1.22m-8.31,3.85a8.43,8.43,0,0,1-1.74-5.54,15.26,15.26,0,0,1,1.74-7.12A14.81,14.81,0,0,1,324.57,46a10.43,10.43,0,0,1,6.13-2,1.83,1.83,0,0,1,1.39.4,3.31,3.31,0,0,1,.58,1.43,11.54,11.54,0,0,1,2.07-.19c1.54,0,2.3.55,2.3,1.65a35,35,0,0,1-.7,4.7,45.61,45.61,0,0,0-1.08,7.52,1.75,1.75,0,0,0,.35,1.13,1.15,1.15,0,0,0,.92.42,3.57,3.57,0,0,0,2.16-1.15,41.83,41.83,0,0,0,3.43-3.74,1.66,1.66,0,0,1,1.27-.66,1.07,1.07,0,0,1,1,.57,2.85,2.85,0,0,1,.35,1.55,4.29,4.29,0,0,1-.89,2.91,23.25,23.25,0,0,1-4.09,4,6.94,6.94,0,0,1-4.18,1.65,4.36,4.36,0,0,1-2.84-1.06,6.29,6.29,0,0,1-1.95-2.89c-1.63,2.63-3.69,3.95-6.16,3.95a5.71,5.71,0,0,1-4.65-2.12" transform="translate(0 0)"/><path class="cls-3" d="M341.72,64.33a17.9,17.9,0,0,1-.73-6,38.3,38.3,0,0,1,1.74-11.61,3.5,3.5,0,0,1,1.39-2,4.81,4.81,0,0,1,2.7-.64,2.63,2.63,0,0,1,1.32.24,1,1,0,0,1,.37.89,17.68,17.68,0,0,1-.7,3.38c-.32,1.26-.57,2.35-.76,3.29s-.34,2.1-.47,3.48a27.14,27.14,0,0,1,3.48-6.58,13.72,13.72,0,0,1,3.79-3.62,6.85,6.85,0,0,1,3.4-1.08q3.06,0,3.06,3.06a23.79,23.79,0,0,1-.42,3,16.09,16.09,0,0,0-.38,2.35c0,1.1.39,1.64,1.17,1.64s2-.69,3.39-2.06a1.79,1.79,0,0,1,1.27-.62,1.1,1.1,0,0,1,1,.55,2.52,2.52,0,0,1,.35,1.43,3.75,3.75,0,0,1-.94,2.72,12.43,12.43,0,0,1-3.08,2.33,7.68,7.68,0,0,1-3.73,1,5.24,5.24,0,0,1-3.79-1.26,4.61,4.61,0,0,1-1.29-3.44,7.49,7.49,0,0,1,.14-1.41c.07-.62.1-1,.1-1.26,0-.51-.18-.76-.52-.76s-1.09.53-1.86,1.58A22.81,22.81,0,0,0,349.4,57a33.86,33.86,0,0,0-1.83,5.45,7.13,7.13,0,0,1-1.2,3,2.69,2.69,0,0,1-2.14.78,2.56,2.56,0,0,1-2.51-1.88" transform="translate(0 0)"/><path class="cls-3" d="M363.1,64.33a18.22,18.22,0,0,1-.72-6,38.61,38.61,0,0,1,1.73-11.61,3.59,3.59,0,0,1,1.39-2,4.81,4.81,0,0,1,2.7-.64,2.61,2.61,0,0,1,1.32.24,1,1,0,0,1,.38.89,18,18,0,0,1-.71,3.38q-.46,1.89-.75,3.27a31,31,0,0,0-.47,3.46,25.3,25.3,0,0,1,3-6.21,14.33,14.33,0,0,1,3.62-3.78,6.36,6.36,0,0,1,3.5-1.25,3,3,0,0,1,2.33.75,3.39,3.39,0,0,1,.68,2.31,30.17,30.17,0,0,1-.89,5.45c-.26,1.13-.43,2-.52,2.54,1.57-3.86,3.3-6.66,5.22-8.42s3.69-2.63,5.35-2.63q3.06,0,3.06,3.06a37.8,37.8,0,0,1-1,6.62,33.15,33.15,0,0,0-.89,5.41c0,1.25.46,1.88,1.36,1.88A3.66,3.66,0,0,0,395,59.89a38.64,38.64,0,0,0,3.45-3.74,1.66,1.66,0,0,1,1.27-.66,1.07,1.07,0,0,1,1,.57,2.84,2.84,0,0,1,.36,1.55,4.29,4.29,0,0,1-.9,2.91,20.5,20.5,0,0,1-4.34,4.09,9.1,9.1,0,0,1-5.29,1.6,4.54,4.54,0,0,1-3.62-1.39,5.86,5.86,0,0,1-1.22-4,29.42,29.42,0,0,1,.66-4.7A25,25,0,0,0,387,52c0-.51-.18-.76-.52-.76s-1,.53-1.74,1.58A23.5,23.5,0,0,0,382.44,57a33.86,33.86,0,0,0-1.83,5.45,7.06,7.06,0,0,1-1.2,3,2.81,2.81,0,0,1-2.18.75,2.49,2.49,0,0,1-2.33-1.48,7.66,7.66,0,0,1-.77-3.6A39.53,39.53,0,0,1,374.6,56c.25-2,.37-3.32.37-3.94s-.17-.76-.51-.76-1.07.57-1.79,1.7a23.92,23.92,0,0,0-2.09,4.32A39.29,39.29,0,0,0,369,62.45a7.41,7.41,0,0,1-1.2,3,2.71,2.71,0,0,1-2.14.78,2.58,2.58,0,0,1-2.52-1.88" transform="translate(0 0)"/><path class="cls-3" d="M403.43,50.7a9.43,9.43,0,0,0-1.2,4.89v.09a10.75,10.75,0,0,0,4.37-2,3.88,3.88,0,0,0,1.6-3.06,2,2,0,0,0-.49-1.43,1.73,1.73,0,0,0-1.34-.54,3.44,3.44,0,0,0-2.94,2m15.74,5.36a2.84,2.84,0,0,1,.36,1.55,4.29,4.29,0,0,1-.9,2.91,17.09,17.09,0,0,1-4.91,3.9,13.62,13.62,0,0,1-6.79,1.79q-4.94,0-7.66-2.68a9.81,9.81,0,0,1-2.73-7.33,13.58,13.58,0,0,1,1.37-6,11.17,11.17,0,0,1,3.78-4.44,9.49,9.49,0,0,1,5.48-1.65,5.62,5.62,0,0,1,6,6,7.6,7.6,0,0,1-2.32,5.57c-1.56,1.55-4.18,2.78-7.88,3.69.79,1.44,2.27,2.16,4.47,2.16A10.28,10.28,0,0,0,412.27,60a15.85,15.85,0,0,0,4.67-3.88,1.66,1.66,0,0,1,1.27-.66,1.07,1.07,0,0,1,1,.57" transform="translate(0 0)"/><path class="cls-3" d="M98.56,15.33v0h0v0c.2-.33,4.93,2.08,10.58,5.38,1.25.73,2.43,1.45,3.52,2.12l1.68-1.4L114,23.62l1.71,1.1,1.41-1.18-.35,1.89a21.73,21.73,0,0,1,1.93,1.41L120,25.69l-.37,2,1.87,1.1h0c1.54-2.62-2.36-7.76-8.71-11.47s-12.73-4.61-14.27-2" transform="translate(0 0)"/><path class="cls-3" d="M98.31,15.57v0h0v0c0-.3,4.13-.52,9.21-.49,1.13,0,2.2,0,3.2.06l.58-1.59.57,1.62,1.59.08.49-1.34.49,1.4c.83.06,1.46.13,1.85.2l.48-1.31.53,1.5H119c0-2.36-4.6-4.3-10.32-4.33s-10.36,1.85-10.38,4.2" transform="translate(0 0)"/><path class="cls-3" d="M98.53,14.58h0c-.13-.23,2.92-2.21,6.81-4.43.86-.49,1.69-1,2.46-1.36l-.25-1.47,1.15,1c.44-.24.86-.45,1.24-.64l-.22-1.24,1,.85a16,16,0,0,1,1.5-.66L112,5.4l1.06.91,1.3-.74h0c-1-1.8-5.41-1.25-9.78,1.24s-7.09,6-6.06,7.78" transform="translate(0 0)"/><path class="cls-3" d="M97.33,15.11v0h0v0c-.06-.38-5.34.2-11.8,1.3-1.42.24-2.78.49-4,.73l-1.07-1.9L80,17.43c-.71.14-1.38.28-2,.42l-.9-1.6-.34,1.89a23.43,23.43,0,0,0-2.31.64l-.88-1.56-.36,2-2.14.37v0c-.51-3,5-6.42,12.21-7.65s13.53.19,14,3.18" transform="translate(0 0)"/><path class="cls-3" d="M97.55,15.7h0v0c.11-.28-3.74-2-8.6-3.78-1.07-.4-2.1-.76-3.06-1.1l0-1.72-1.13,1.34c-.55-.18-1.06-.35-1.54-.49l0-1.46-1,1.16a18.42,18.42,0,0,0-1.83-.47V7.75L79.4,9l-1.62-.6v0c.83-2.25,5.93-2.43,11.39-.41s9.2,5.49,8.37,7.74" transform="translate(0 0)"/><path class="cls-3" d="M96.94,14.69h0c.21-.17-2-3.16-4.89-6.67-.64-.77-1.27-1.51-1.85-2.18L91,4.52l-1.46.53L88.56,4l.65-1.1L88,3.34c-.51-.53-.92-.93-1.19-1.16L87.4,1.1l-1.35.48-1-1.16h0c1.63-1.35,5.6.75,8.87,4.7s4.6,8.23,3,9.58" transform="translate(0 0)"/><path class="cls-3" d="M97.14,20.14c.74,6.42-13.92,23.33-31,25.29S34.48,38.76,33.75,32.34c.3,2.65,14.47,8.21,31.58,6.25s32.11-15.8,31.81-18.45" transform="translate(0 0)"/><path class="cls-3" d="M23,62.41c0,3,7.21,5.48,16.1,5.48s16.1-2.45,16.1-5.48-7.21-5.48-16.1-5.48S23,59.39,23,62.41" transform="translate(0 0)"/><path class="cls-3" d="M24.52,21.34a6.6,6.6,0,0,0,.39,2.06c1.11,3.41,4.61,8,5.72,13.74A164.84,164.84,0,0,1,33,53.58l.89,6.88a.36.36,0,0,0,.38.32,24.45,24.45,0,0,0,3.67-.41A5.68,5.68,0,0,0,41.45,59a4.33,4.33,0,0,0,.84-3.33A151.68,151.68,0,0,0,40.17,40c-1.1-6.21-4.84-12.2-6.42-18A3.34,3.34,0,0,0,32,19.81a8.21,8.21,0,0,0-3.53-.65c-2.6,0-3.91.73-3.91,2.18" transform="translate(0 0)"/><path class="cls-3" d="M27.39,21.26l0,0h0v0c-.23-.39-5.79,2.44-12.43,6.32-1.46.86-2.86,1.69-4.14,2.48l-2-1.64L9.32,31c-.73.45-1.4.88-2,1.29L5.64,30.9l.41,2.22a27.2,27.2,0,0,0-2.26,1.66L2.17,33.43l.44,2.36L.4,37.08v0C-1.41,34,3.17,28,10.63,23.59s15-5.41,16.76-2.33" transform="translate(0 0)"/><path class="cls-3" d="M27.69,21.54v0h0s0,0,0,0c0-.35-4.85-.61-10.83-.58-1.32,0-2.58,0-3.75.06l-.68-1.86-.68,1.91c-.66,0-1.29.05-1.86.09l-.58-1.58-.58,1.65a20.31,20.31,0,0,0-2.17.24L6,19.93l-.62,1.76h-2v0c0-2.77,5.42-5.05,12.14-5.09s12.17,2.18,12.19,4.95" transform="translate(0 0)"/><path class="cls-3" d="M27.43,20.37h0c.15-.27-3.43-2.6-8-5.2-1-.58-2-1.12-2.88-1.61l.3-1.72L15.47,13,14,12.23l.25-1.45-1.17,1A18.76,18.76,0,0,0,11.34,11l.24-1.43-1.25,1.07L8.81,9.79v0C10,7.65,15.17,8.31,20.31,11.23s8.33,7,7.12,9.14" transform="translate(0 0)"/><path class="cls-3" d="M28.84,21v0h0v0c.08-.45,6.29.23,13.87,1.52,1.67.28,3.27.57,4.75.86l1.25-2.23.46,2.57,2.34.49,1.07-1.88L53,24.55a26,26,0,0,1,2.71.76l1-1.84.42,2.37,2.52.43v0c.6-3.51-5.82-7.54-14.34-9s-15.9.23-16.5,3.74" transform="translate(0 0)"/><path class="cls-3" d="M28.59,21.69h0a0,0,0,0,1,0,0c-.13-.34,4.4-2.33,10.1-4.44,1.26-.47,2.47-.9,3.6-1.29l0-2,1.33,1.58,1.8-.59,0-1.7,1.15,1.36c1-.28,1.69-.47,2.16-.56l0-1.67,1.23,1.46,1.89-.7v0c-1-2.65-7-2.87-13.39-.49S27.61,19,28.59,21.69" transform="translate(0 0)"/><path class="cls-3" d="M29.3,20.5h0c-.24-.2,2.33-3.71,5.75-7.84.76-.91,1.49-1.77,2.18-2.56l-.91-1.54L38,9.17l1.11-1.24-.76-1.29,1.47.53c.6-.63,1.08-1.1,1.4-1.37l-.74-1.27,1.57.57,1.14-1.37h0c-1.92-1.59-6.58.89-10.42,5.52s-5.41,9.68-3.5,11.26" transform="translate(0 0)"/></g></g></g></svg>