<svg xmlns="http://www.w3.org/2000/svg" xmlns:xlink="http://www.w3.org/1999/xlink" viewBox="0 0 14.89 13.13"><defs><style>.cls-1{fill:none;}.cls-2{clip-path:url(#clip-path);}.cls-3{fill:#fff;}</style><clipPath id="clip-path" transform="translate(0 0)"><rect class="cls-1" width="14.89" height="13.13"/></clipPath></defs><g id="Layer_2" data-name="Layer 2"><g id="Layer_1-2" data-name="Layer 1"><g class="cls-2"><path class="cls-3" d="M4.47.38H0L6,10.62S7,7.91,7.41,6.94" transform="translate(0 0)"/><path class="cls-3" d="M3.37,13H0V.38C0,7,3,13,3.37,13" transform="translate(0 0)"/><path class="cls-3" d="M6,10.62H8.75L14.89.38C13.8.25,11.63.08,10.55,0Z" transform="translate(0 0)"/><path class="cls-3" d="M11.33,6.58a20.91,20.91,0,0,0,3.56,6.55c-3.06,0-3.71-.41-3.71-.63V6.83l.15-.25" transform="translate(0 0)"/><path class="cls-3" d="M14.89.38V13.13A29.52,29.52,0,0,1,11.38,6.5C13.51,3,14.89.38,14.89.38" transform="translate(0 0)"/></g><polygon class="cls-3" points="3.37 13.04 3.6 12.54 3.6 6.75 3.37 6.39 3.37 13.04"/><g class="cls-2"><path class="cls-3" d="M3.38,6.41V13C3.13,13,0,5.88,0,.38c0,0,1.91,3.69,3.38,6" transform="translate(0 0)"/></g></g></g></svg>