<svg xmlns="http://www.w3.org/2000/svg" xmlns:xlink="http://www.w3.org/1999/xlink" viewBox="0 0 14.4 16.2"><defs><style>.cls-1{fill:none;}.cls-2{clip-path:url(#clip-path);}.cls-3{fill:#fff;}</style><clipPath id="clip-path" transform="translate(0)"><rect class="cls-1" width="14.4" height="16.2"/></clipPath></defs><g id="Layer_2" data-name="Layer 2"><g id="Layer_1-2" data-name="Layer 1"><g class="cls-2"><path class="cls-3" d="M5.23,15a.72.72,0,0,0,0-1.42.72.72,0,0,0,0,1.42M7.15,16.2c-3.66,0-3.43-1.79-3.43-1.79V12.55H7.22V12H2.34S0,12.29,0,8.12s2-4,2-4H3.26V6s-.06,2.31,2,2.31H8.73a2,2,0,0,1,1.95,2.13V14S11,16.2,7.15,16.2" transform="translate(0)"/><path class="cls-3" d="M9.18,1.25A.67.67,0,0,0,8.55,2,.63.63,0,1,0,9.81,2a.67.67,0,0,0-.63-.71M7.25,0c3.66,0,3.43,1.79,3.43,1.79V3.65H7.19v.56h4.87s2.34-.3,2.34,3.87-2,4-2,4H11.14V10.17s.07-2.31-2-2.31H5.67A1.94,1.94,0,0,1,3.73,5.73V2.16S3.43,0,7.25,0" transform="translate(0)"/></g></g></g></svg>