<svg xmlns="http://www.w3.org/2000/svg" xmlns:xlink="http://www.w3.org/1999/xlink" viewBox="0 0 11.31 12.72"><defs><style>.cls-1{fill:none;}.cls-2{clip-path:url(#clip-path);}.cls-3{fill:#fff;}</style><clipPath id="clip-path" transform="translate(0 0)"><rect class="cls-1" width="11.31" height="12.73"/></clipPath></defs><g id="Layer_2" data-name="Layer 2"><g id="Layer_1-2" data-name="Layer 1"><g class="cls-2"><path class="cls-3" d="M4.06,6.11H5.34l.37,0A1.19,1.19,0,0,0,6.8,4.87a1.23,1.23,0,0,0-.94-1.45,8.25,8.25,0,0,0-1.79,0Zm7.25,6.62H6.72l-2-3.66a.94.94,0,0,0-.64,0V12.7H0V.11C.15,0,.32,0,.48,0,2.35,0,4.23,0,6.1.05A8.46,8.46,0,0,1,7.61.27a3.88,3.88,0,0,1,3.25,3.25A4.11,4.11,0,0,1,9,8.07l-.19.14s0,0,0,.07Z" transform="translate(0 0)"/></g></g></g></svg>