<svg id="Layer_1" data-name="Layer 1" xmlns="http://www.w3.org/2000/svg" xmlns:xlink="http://www.w3.org/1999/xlink" viewBox="0 0 350 50"><defs><style>.cls-1{fill:none;}.cls-2{fill:#7acc9e;}.cls-3{clip-path:url(#clip-path);}.cls-4{fill:#fff;}.cls-5{clip-path:url(#clip-path-2);}.cls-6{clip-path:url(#clip-path-3);}.cls-7{clip-path:url(#clip-path-5);}</style><clipPath id="clip-path" transform="translate(-75)"><rect class="cls-1" x="89.15" y="12.47" width="21.9" height="24.64"/></clipPath><clipPath id="clip-path-2" transform="translate(-75)"><rect class="cls-1" x="189.28" y="12.79" width="21.81" height="24.54"/></clipPath><clipPath id="clip-path-3" transform="translate(-75)"><rect class="cls-1" x="287.52" y="13.92" width="24.48" height="21.59"/></clipPath><clipPath id="clip-path-5" transform="translate(-75)"><rect class="cls-1" x="391.83" y="15.78" width="17.17" height="19.33"/></clipPath></defs><circle class="cls-2" cx="25" cy="25" r="25"/><circle class="cls-2" cx="325" cy="25" r="25"/><circle class="cls-2" cx="125" cy="25" r="25"/><circle class="cls-2" cx="225" cy="25" r="25"/><g id="Layer_2" data-name="Layer 2"><g id="Layer_1-2" data-name="Layer 1-2"><g class="cls-3"><path class="cls-4" d="M110.44,25.2h-.8V26h-.81V25.2H108v-.82h.82v-.81h.81v.81h.8Zm-3,0h-.81V26h-.8V25.2H105v-.82h.82v-.81h.8v.81h.81Zm-7.3,6.89a7.3,7.3,0,1,1,6.33-11L103.26,23a3.65,3.65,0,1,0-1.33,5,3.69,3.69,0,0,0,1.33-1.33l3.17,1.82a7.31,7.31,0,0,1-6.33,3.65m10.65-13.46a1.9,1.9,0,0,0-.67-.71l-9-5.22a2.12,2.12,0,0,0-1.9,0L90,17.92a2.14,2.14,0,0,0-.88,1.64V30a2,2,0,0,0,.28.93,2.08,2.08,0,0,0,.66.72l9.13,5.21a2.12,2.12,0,0,0,1.9,0l9-5.21a2.11,2.11,0,0,0,.94-1.65V19.56a2,2,0,0,0-.27-.93" transform="translate(-75)"/></g></g></g><g id="Layer_2-2" data-name="Layer 2"><g id="Layer_1-2-2" data-name="Layer 1-2"><g class="cls-5"><path class="cls-4" d="M197.2,35.51a1.1,1.1,0,0,0,.9-1.26.92.92,0,1,0-1.79.36,1.09,1.09,0,0,0,.89.9m2.91,1.81c-5.54,0-5.19-2.71-5.19-2.71V31.8h5.3V31h-7.4s-3.54.44-3.54-5.87,3-6.06,3-6.06h1.91v2.84s-.09,3.5,3,3.5h5.25a3,3,0,0,1,3,3.1V34s.48,3.33-5.35,3.33" transform="translate(-75)"/><path class="cls-4" d="M203.19,14.68a1,1,0,0,0-1,1.07v.06a1,1,0,1,0,1.91,0,1,1,0,0,0-.95-1.07h0m-2.93-2c5.55,0,5.2,2.71,5.2,2.71v2.81h-5.29v.85h7.38s3.54-.45,3.54,5.86-3,6.06-3,6.06h-1.9V28.19s.1-3.5-3-3.5h-5.26a2.93,2.93,0,0,1-3-2.92c0-.1,0-.2,0-.31v-5.4s-.45-3.27,5.33-3.27" transform="translate(-75)"/></g></g></g><g id="Layer_2-3" data-name="Layer 2"><g id="Layer_1-2-3" data-name="Layer 1-2"><g class="cls-6"><path class="cls-4" d="M294.87,14.54h-7.35l9.86,16.84s1.65-4.45,2.32-6.05" transform="translate(-75)"/><path class="cls-4" d="M293.06,35.3h-5.54V14.54c0,10.89,4.93,20.76,5.54,20.76" transform="translate(-75)"/><path class="cls-4" d="M297.38,31.38h4.52L312,14.54c-1.79-.21-5.36-.49-7.14-.62Z" transform="translate(-75)"/><path class="cls-4" d="M306.15,24.74A34.39,34.39,0,0,0,312,35.51c-5,0-6.1-.68-6.1-1V25.15l.25-.41" transform="translate(-75)"/><path class="cls-4" d="M312,14.54v21a48.43,48.43,0,0,1-5.77-10.9c3.5-5.76,5.77-10.07,5.77-10.07" transform="translate(-75)"/></g><polygon class="cls-4" points="218.06 35.36 218.44 34.54 218.44 25.02 218.06 24.43 218.06 35.36"/><g class="cls-6"><path class="cls-4" d="M293.07,24.46V35.3c-.41,0-5.55-11.71-5.55-20.76,0,0,3.14,6.07,5.55,9.87" transform="translate(-75)"/></g></g></g><g id="Layer_2-4" data-name="Layer 2"><g id="Layer_1-2-4" data-name="Layer 1-2"><g class="cls-7"><path class="cls-4" d="M398,25.05h2.51a1.79,1.79,0,0,0,1.65-1.88,1.87,1.87,0,0,0-1.42-2.2A12.37,12.37,0,0,0,398,21ZM409,35.1h-7l-3-5.55a1.38,1.38,0,0,0-1,0v5.51h-6.19V15.94a1.2,1.2,0,0,1,.73-.16c2.84,0,5.69,0,8.53.07a12.66,12.66,0,0,1,2.29.34,5.89,5.89,0,0,1,4.94,4.93A6.25,6.25,0,0,1,405.49,28l-.29.21v.11Z" transform="translate(-75)"/></g></g></g></svg>